<svg width="0" height="0" class="hidden">
    <symbol fill="none" xmlns="http://www.w3.org/2000/svg" viewBox="0 0 138 130" id="amocii">
        <path fill-rule="evenodd" clip-rule="evenodd" d="M69.356 121.875c15.899 0 31.146-5.992 42.389-16.658C122.987 94.551 129.302 80.084 129.302 65s-6.315-29.55-17.557-40.217C100.502 14.117 85.255 8.125 69.356 8.125c-15.899 0-31.146 5.992-42.388 16.658C15.726 35.45 9.41 49.916 9.41 65s6.316 29.55 17.558 40.217c11.242 10.666 26.49 16.658 42.388 16.658zm0 8.125c18.17 0 35.596-6.848 48.444-19.038 12.848-12.19 20.066-28.723 20.066-45.962 0-17.24-7.218-33.772-20.066-45.962C104.952 6.848 87.526 0 69.356 0S33.76 6.848 20.912 19.038C8.064 31.228.846 47.761.846 65c0 17.24 7.218 33.772 20.066 45.962C33.76 123.152 51.186 130 69.356 130z" fill="#fff"></path>
        <path fill-rule="evenodd" clip-rule="evenodd" d="M106.446 77.188a7.813 7.813 0 011.147 4.062 7.813 7.813 0 01-1.147 4.063c-3.758 6.178-9.164 11.308-15.675 14.874-6.51 3.566-13.897 5.441-21.415 5.438-7.516.002-14.9-1.875-21.41-5.44-6.51-3.566-11.914-8.695-15.67-14.872a7.807 7.807 0 01-1.148-4.06c0-1.426.395-2.827 1.145-4.061a8.357 8.357 0 013.131-2.975 8.921 8.921 0 014.279-1.092H99.03c1.503 0 2.98.376 4.281 1.089a8.36 8.36 0 013.135 2.974z" fill="#fff"></path>
        <path d="M60.792 52.813c0 6.727-3.836 0-8.563 0s-8.564 6.727-8.564 0c0-6.728 3.837-12.188 8.564-12.188s8.563 5.46 8.563 12.188zm34.255 0c0 6.727-3.836 0-8.563 0s-8.564 6.727-8.564 0c0-6.728 3.837-12.188 8.564-12.188s8.564 5.46 8.564 12.188z" fill="#fff"></path>
    </symbol>
    <symbol fill="none" xmlns="http://www.w3.org/2000/svg" viewBox="0 0 129 130" id="chanels">
        <path fill-rule="evenodd" clip-rule="evenodd" d="M22.09 94.85a8.85 8.85 0 011.857 3.207 9.457 9.457 0 01.43 3.766 103.354 103.354 0 01-3.171 17.413c11.116-2.812 17.906-6.068 20.99-7.775a7.362 7.362 0 015.657-.644 59.096 59.096 0 0016.647 2.368c31.843 0 55.781-24.44 55.781-52.24 0-27.79-23.938-52.238-55.781-52.238S8.719 33.155 8.719 60.946c0 12.781 4.917 24.64 13.371 33.903zm-3.928 33.998a157.71 157.71 0 01-5.682 1.123c-1.594.279-2.805-1.532-2.175-3.151a89.415 89.415 0 001.944-5.546l.024-.087c1.976-6.269 3.586-13.478 4.175-20.191C6.671 90.287.75 76.269.75 60.946.75 27.286 29.294 0 64.5 0s63.75 27.286 63.75 60.946-28.544 60.946-63.75 60.946a66.493 66.493 0 01-18.703-2.664c-4.143 2.289-13.06 6.46-27.635 9.62z" fill="#fff"></path>
        <path d="M40.594 60.946c0 2.309-.84 4.523-2.334 6.156-1.495 1.633-3.522 2.55-5.635 2.55s-4.14-.917-5.635-2.55c-1.494-1.633-2.334-3.847-2.334-6.156 0-2.31.84-4.524 2.334-6.157 1.495-1.632 3.522-2.55 5.635-2.55s4.14.918 5.635 2.55c1.494 1.633 2.334 3.848 2.334 6.157zm31.875 0c0 2.309-.84 4.523-2.334 6.156-1.495 1.633-3.522 2.55-5.635 2.55s-4.14-.917-5.635-2.55c-1.494-1.633-2.334-3.847-2.334-6.156 0-2.31.84-4.524 2.334-6.157 1.495-1.632 3.522-2.55 5.635-2.55s4.14.918 5.635 2.55c1.494 1.633 2.334 3.848 2.334 6.157zm31.875 0c0 2.309-.84 4.523-2.334 6.156-1.495 1.633-3.522 2.55-5.635 2.55-2.114 0-4.14-.917-5.635-2.55-1.494-1.633-2.334-3.847-2.334-6.156 0-2.31.84-4.524 2.334-6.157 1.495-1.632 3.522-2.55 5.635-2.55s4.14.918 5.635 2.55c1.494 1.633 2.334 3.848 2.334 6.157z" fill="#fff"></path>
    </symbol>
    <symbol fill="none" xmlns="http://www.w3.org/2000/svg" viewBox="0 0 30 30" id="moon">
        <path fill-rule="evenodd" clip-rule="evenodd" d="M27.244 19.744A13.125 13.125 0 0110.26 2.76 13.13 13.13 0 0015 28.125a13.13 13.13 0 0012.244-8.381z" fill="#fff"></path>
    </symbol>
    <symbol fill="none" xmlns="http://www.w3.org/2000/svg" viewBox="0 0 129 130" id="server">
        <path fill-rule="evenodd" clip-rule="evenodd" d="M13.505 115.862V54.598h8.5v61.264c0 1.25.447 2.449 1.244 3.332.797.884 1.878 1.381 3.005 1.381h76.493c1.127 0 2.208-.497 3.005-1.381.797-.883 1.245-2.082 1.245-3.332V54.598h8.499v61.264c0 3.75-1.343 7.346-3.734 9.997S106.129 130 102.747 130H26.254c-3.381 0-6.624-1.49-9.015-4.141-2.39-2.651-3.734-6.247-3.734-9.997zm93.492-103.677v32.988l-16.999-18.85V12.185c0-1.25.448-2.449 1.245-3.333.797-.883 1.878-1.38 3.005-1.38h8.499c1.127 0 2.208.497 3.005 1.38.797.884 1.245 2.083 1.245 3.333z"></path>
        <path fill-rule="evenodd" clip-rule="evenodd" d="M58.491 2.76C60.085.993 62.246 0 64.5 0c2.254 0 4.415.993 6.009 2.76l56.495 62.64c.798.885 1.246 2.085 1.246 3.336 0 1.252-.448 2.452-1.246 3.337-.798.885-1.881 1.382-3.009 1.382-1.129 0-2.211-.497-3.009-1.382L64.5 9.423 8.014 72.073c-.798.885-1.88 1.382-3.009 1.382-1.128 0-2.21-.497-3.009-1.382C1.198 71.188.75 69.988.75 68.736c0-1.251.448-2.451 1.246-3.336L58.491 2.76z"></path>
    </symbol>
    <symbol fill="none" xmlns="http://www.w3.org/2000/svg" viewBox="0 0 15 7" id="strela">
        <path fill-rule="evenodd" clip-rule="evenodd" d="M.315.257C.415.175.532.11.663.067a1.283 1.283 0 01.82 0c.13.044.249.108.349.19L7.5 4.887l5.67-4.63c.201-.164.474-.257.758-.257.285 0 .558.093.759.257a.803.803 0 01.314.62.803.803 0 01-.314.618L8.259 6.743c-.1.081-.218.146-.348.19a1.283 1.283 0 01-.821 0 1.112 1.112 0 01-.348-.19L.315 1.495a.887.887 0 01-.233-.284.738.738 0 010-.67.887.887 0 01.233-.284z" fill="#fff"></path>
    </symbol>
    <symbol fill="none" xmlns="http://www.w3.org/2000/svg" viewBox="0 0 171 130" id="users">
        <path fill-rule="evenodd" clip-rule="evenodd" d="M159.784 129.919s10.641 0 10.641-10.827c0-10.826-10.641-43.306-53.204-43.306s-53.204 32.48-53.204 43.306c0 10.827 10.641 10.827 10.641 10.827h85.126zm-85.073-10.221v-.021.021zm.181-.606h84.658c.05-.006.099-.013.149-.021l.085-.022c-.021-2.858-1.777-11.151-8.087-18.622-5.874-7.005-16.195-13.815-34.476-13.815-18.27 0-28.592 6.821-34.476 13.815-6.31 7.471-8.076 15.774-8.087 18.622.078.015.156.03.234.043zm84.839.606v-.021.021zm-42.51-65.565c5.644 0 11.057-2.282 15.048-6.342 3.991-4.061 6.233-9.569 6.233-15.311 0-5.743-2.242-11.25-6.233-15.311-3.991-4.061-9.404-6.342-15.048-6.342s-11.057 2.28-15.048 6.342c-3.991 4.06-6.234 9.568-6.234 15.31 0 5.743 2.243 11.251 6.234 15.312 3.991 4.06 9.404 6.342 15.048 6.342zm31.922-21.653c0 4.265-.826 8.489-2.43 12.43a32.508 32.508 0 01-6.92 10.536 31.888 31.888 0 01-10.356 7.041 31.446 31.446 0 01-12.216 2.472c-4.192 0-8.343-.84-12.216-2.472a31.892 31.892 0 01-10.356-7.04 32.524 32.524 0 01-6.92-10.538 32.973 32.973 0 01-2.43-12.43c0-8.613 3.363-16.875 9.35-22.966C100.635 3.422 108.754 0 117.22 0s16.586 3.422 22.572 9.513c5.987 6.091 9.35 14.353 9.35 22.967zM73.977 78.817a61.625 61.625 0 00-13.088-2.674 76.892 76.892 0 00-7.513-.357c-42.562 0-53.203 32.48-53.203 43.306 0 7.221 3.543 10.827 10.64 10.827h44.862a24.59 24.59 0 01-2.298-10.827c0-10.935 4.011-22.108 11.598-31.44a56.75 56.75 0 019.002-8.835zm-21.452 7.796c-17.748.216-27.825 6.928-33.624 13.814-6.353 7.514-8.087 15.839-8.087 18.665h31.922c0-11.314 3.437-22.584 9.79-32.48zm-36.391-48.72c0-8.614 3.363-16.876 9.35-22.967 5.986-6.09 14.106-9.513 22.572-9.513s16.586 3.422 22.573 9.513c5.986 6.091 9.35 14.353 9.35 22.967 0 8.614-3.364 16.875-9.35 22.967-5.987 6.09-14.107 9.513-22.573 9.513-8.466 0-16.586-3.422-22.572-9.513-5.987-6.092-9.35-14.353-9.35-22.967zM48.056 16.24c-5.644 0-11.057 2.281-15.048 6.342-3.991 4.06-6.233 9.568-6.233 15.311s2.242 11.25 6.233 15.311c3.99 4.06 9.404 6.342 15.048 6.342s11.057-2.281 15.048-6.342c3.992-4.06 6.234-9.568 6.234-15.311s-2.242-11.25-6.234-15.311c-3.99-4.06-9.404-6.342-15.048-6.342z" fill="#fff"></path>
    </symbol>
</svg>