<svg width="30" height="30" viewBox="0 0 30 30" fill="none" xmlns="http://www.w3.org/2000/svg">
<path d="M6.5625 15C6.5625 12.7622 7.45145 10.6161 9.03379 9.03379C10.6161 7.45145 12.7622 6.5625 15 6.5625C17.2378 6.5625 19.3839 7.45145 20.9662 9.03379C22.5486 10.6161 23.4375 12.7622 23.4375 15C23.4375 17.2378 22.5486 19.3839 20.9662 20.9662C19.3839 22.5486 17.2378 23.4375 15 23.4375C12.7622 23.4375 10.6161 22.5486 9.03379 20.9662C7.45145 19.3839 6.5625 17.2378 6.5625 15V15Z" fill="white"/>
<path fill-rule="evenodd" clip-rule="evenodd" d="M15.3786 0.524968C15.3351 0.465308 15.2781 0.416769 15.2123 0.383304C15.1465 0.34984 15.0737 0.332397 14.9998 0.332397C14.926 0.332397 14.8532 0.34984 14.7874 0.383304C14.7216 0.416769 14.6646 0.465308 14.6211 0.524968L12.9148 2.87809C12.8457 2.97432 12.7426 3.04077 12.6264 3.06408C12.5102 3.08739 12.3895 3.06582 12.2886 3.00372L9.80984 1.48122C9.74672 1.44246 9.67532 1.41921 9.60149 1.41337C9.52766 1.40753 9.45349 1.41927 9.38507 1.44762C9.31665 1.47598 9.25592 1.52015 9.20786 1.5765C9.1598 1.63286 9.12578 1.6998 9.10859 1.77184L8.43359 4.59934C8.40663 4.71446 8.33716 4.81514 8.23911 4.88121C8.14105 4.94727 8.02165 4.97384 7.90484 4.95559L5.03234 4.49622C4.95928 4.48466 4.88453 4.49055 4.81419 4.51341C4.74385 4.53627 4.67992 4.57545 4.62762 4.62775C4.57532 4.68005 4.53614 4.74398 4.51328 4.81432C4.49042 4.88466 4.48453 4.95941 4.49609 5.03247L4.95359 7.90497C4.97191 8.02152 4.94559 8.1407 4.87991 8.23871C4.81422 8.33673 4.71399 8.40636 4.59921 8.43372L1.76984 9.10872C1.69796 9.12614 1.63122 9.16033 1.57509 9.20849C1.51895 9.25665 1.475 9.3174 1.44684 9.38579C1.41868 9.45418 1.4071 9.52827 1.41306 9.60199C1.41901 9.67571 1.44232 9.74698 1.48109 9.80997L3.00359 12.2887C3.06513 12.3895 3.08639 12.5098 3.0631 12.6255C3.03981 12.7413 2.97369 12.844 2.87796 12.9131L0.522963 14.6193C0.462937 14.6628 0.414069 14.7199 0.380371 14.7859C0.346672 14.8519 0.329102 14.9249 0.329102 14.999C0.329102 15.0731 0.346672 15.1462 0.380371 15.2122C0.414069 15.2782 0.462937 15.3353 0.522963 15.3787L2.87796 17.085C2.97419 17.1541 3.04064 17.2572 3.06395 17.3734C3.08726 17.4896 3.06569 17.6103 3.00359 17.7112L1.48109 20.19C1.44232 20.253 1.41901 20.3242 1.41306 20.3979C1.4071 20.4717 1.41868 20.5458 1.44684 20.6141C1.475 20.6825 1.51895 20.7433 1.57509 20.7914C1.63122 20.8396 1.69796 20.8738 1.76984 20.8912L4.60109 21.5662C4.71551 21.594 4.8153 21.6638 4.88061 21.7617C4.94593 21.8597 4.97198 21.9787 4.95359 22.095L4.49609 24.9675C4.48453 25.0405 4.49042 25.1153 4.51328 25.1856C4.53614 25.256 4.57532 25.3199 4.62762 25.3722C4.67992 25.4245 4.74385 25.4637 4.81419 25.4865C4.88453 25.5094 4.95928 25.5153 5.03234 25.5037L7.90484 25.0462C8.02139 25.0279 8.14057 25.0542 8.23858 25.1199C8.3366 25.1856 8.40623 25.2858 8.43359 25.4006L9.10859 28.2281C9.12578 28.3001 9.1598 28.3671 9.20786 28.4234C9.25592 28.4798 9.31665 28.524 9.38507 28.5523C9.45349 28.5807 9.52766 28.5924 9.60149 28.5866C9.67532 28.5807 9.74672 28.5575 9.80984 28.5187L12.2886 26.9962C12.3894 26.9347 12.5096 26.9134 12.6254 26.9367C12.7411 26.96 12.8438 27.0261 12.913 27.1218L14.6192 29.4768C14.6627 29.5369 14.7197 29.5857 14.7857 29.6194C14.8517 29.6531 14.9248 29.6707 14.9989 29.6707C15.073 29.6707 15.1461 29.6531 15.2121 29.6194C15.2781 29.5857 15.3351 29.5369 15.3786 29.4768L17.0848 27.1218C17.154 27.0256 17.2571 26.9592 17.3733 26.9359C17.4894 26.9125 17.6102 26.9341 17.7111 26.9962L20.1898 28.5187C20.253 28.5575 20.3244 28.5807 20.3982 28.5866C20.472 28.5924 20.5462 28.5807 20.6146 28.5523C20.683 28.524 20.7438 28.4798 20.7918 28.4234C20.8399 28.3671 20.8739 28.3001 20.8911 28.2281L21.5661 25.4006C21.593 25.2855 21.6625 25.1848 21.7606 25.1187C21.8586 25.0527 21.978 25.0261 22.0948 25.0443L24.9673 25.5037C25.0404 25.5153 25.1151 25.5094 25.1855 25.4865C25.2558 25.4637 25.3198 25.4245 25.3721 25.3722C25.4244 25.3199 25.4635 25.256 25.4864 25.1856C25.5093 25.1153 25.5151 25.0405 25.5036 24.9675L25.0461 22.095C25.0278 21.9784 25.0541 21.8592 25.1198 21.7612C25.1855 21.6632 25.2857 21.5936 25.4005 21.5662L28.228 20.8912C28.3 20.874 28.3669 20.84 28.4233 20.7919C28.4797 20.7439 28.5238 20.6832 28.5522 20.6147C28.5805 20.5463 28.5923 20.4721 28.5864 20.3983C28.5806 20.3245 28.5573 20.2531 28.5186 20.19L26.9961 17.7112C26.9345 17.6105 26.9133 17.4902 26.9366 17.3744C26.9599 17.2587 27.026 17.156 27.1217 17.0868L29.4767 15.3806C29.5367 15.3371 29.5856 15.2801 29.6193 15.2141C29.653 15.1481 29.6706 15.075 29.6706 15.0009C29.6706 14.9268 29.653 14.8537 29.6193 14.7877C29.5856 14.7217 29.5367 14.6647 29.4767 14.6212L27.1217 12.915C27.0255 12.8458 26.959 12.7427 26.9357 12.6266C26.9124 12.5104 26.934 12.3896 26.9961 12.2887L28.5186 9.80997C28.5573 9.74685 28.5806 9.67545 28.5864 9.60162C28.5923 9.52779 28.5805 9.45362 28.5522 9.3852C28.5238 9.31677 28.4797 9.25605 28.4233 9.20799C28.3669 9.15993 28.3 9.12591 28.228 9.10872L25.4005 8.43372C25.2853 8.40676 25.1847 8.33729 25.1186 8.23924C25.0525 8.14118 25.026 8.02178 25.0442 7.90497L25.5036 5.03247C25.5151 4.95941 25.5093 4.88466 25.4864 4.81432C25.4635 4.74398 25.4244 4.68005 25.3721 4.62775C25.3198 4.57545 25.2558 4.53627 25.1855 4.51341C25.1151 4.49055 25.0404 4.48466 24.9673 4.49622L22.0948 4.95372C21.9783 4.97204 21.8591 4.94572 21.7611 4.88004C21.6631 4.81435 21.5934 4.71412 21.5661 4.59934L20.8911 1.77184C20.8739 1.6998 20.8399 1.63286 20.7918 1.5765C20.7438 1.52015 20.683 1.47598 20.6146 1.44762C20.5462 1.41927 20.472 1.40753 20.3982 1.41337C20.3244 1.41921 20.253 1.44246 20.1898 1.48122L17.7111 3.00372C17.6103 3.06526 17.49 3.08652 17.3743 3.06323C17.2585 3.03994 17.1558 2.97382 17.0867 2.87809L15.3805 0.524968H15.3786ZM14.9998 4.68747C12.2648 4.68747 9.64177 5.77396 7.7078 7.70793C5.77383 9.6419 4.68734 12.2649 4.68734 15C4.68734 17.735 5.77383 20.358 7.7078 22.292C9.64177 24.226 12.2648 25.3125 14.9998 25.3125C17.7349 25.3125 20.3579 24.226 22.2919 22.292C24.2258 20.358 25.3123 17.735 25.3123 15C25.3123 12.2649 24.2258 9.6419 22.2919 7.70793C20.3579 5.77396 17.7349 4.68747 14.9998 4.68747Z" fill="white"/>
</svg>
