<svg width="129" height="130" viewBox="0 0 129 130" fill="none" xmlns="http://www.w3.org/2000/svg">
<path fill-rule="evenodd" clip-rule="evenodd" d="M13.5049 115.862V54.5982H22.0042V115.862C22.0042 117.112 22.4519 118.311 23.2489 119.194C24.0458 120.078 25.1267 120.575 26.2538 120.575H102.747C103.874 120.575 104.955 120.078 105.752 119.194C106.549 118.311 106.997 117.112 106.997 115.862V54.5982H115.496V115.862C115.496 119.612 114.153 123.208 111.762 125.859C109.371 128.51 106.129 130 102.747 130H26.2538C22.8726 130 19.6298 128.51 17.239 125.859C14.8481 123.208 13.5049 119.612 13.5049 115.862ZM106.997 12.1847V45.173L89.9984 26.3225V12.1847C89.9984 10.9348 90.4462 9.73613 91.2431 8.85234C92.0401 7.96855 93.121 7.47205 94.2481 7.47205H102.747C103.874 7.47205 104.955 7.96855 105.752 8.85234C106.549 9.73613 106.997 10.9348 106.997 12.1847Z" fill="white"/>
<path fill-rule="evenodd" clip-rule="evenodd" d="M58.491 2.75958C60.0849 0.992622 62.2463 0 64.5 0C66.7537 0 68.9151 0.992622 70.509 2.75958L127.004 65.3997C127.802 66.2846 128.25 67.4847 128.25 68.7362C128.25 69.9876 127.802 71.1878 127.004 72.0727C126.206 72.9576 125.123 73.4548 123.995 73.4548C122.866 73.4548 121.784 72.9576 120.986 72.0727L64.5 9.42322L8.01376 72.0727C7.21579 72.9576 6.13351 73.4548 5.00501 73.4548C3.87651 73.4548 2.79423 72.9576 1.99626 72.0727C1.19829 71.1878 0.75 69.9876 0.75 68.7362C0.75 67.4847 1.19829 66.2846 1.99626 65.3997L58.491 2.75958Z" fill="white"/>
</svg>
